<?xml version="1.0" standalone="no"?>
<!DOCTYPE svg PUBLIC "-//W3C//DTD SVG 20010904//EN"
 "http://www.w3.org/TR/2001/REC-SVG-20010904/DTD/svg10.dtd">
<svg version="1.0" xmlns="http://www.w3.org/2000/svg"
 width="16.000000pt" height="16.000000pt" viewBox="0 0 16.000000 16.000000"
 preserveAspectRatio="xMidYMid meet">

<g transform="translate(0.000000,16.000000) scale(0.100000,-0.100000)"
fill="#000000" stroke="none">
<path d="M127 135 c3 -9 -3 -26 -13 -38 l-19 -22 23 19 c22 19 30 56 12 56 -5
0 -7 -7 -3 -15z"/>
<path d="M12 98 c-32 -32 3 -76 64 -83 31 -4 34 -3 13 4 -58 19 -71 31 -67 62
3 16 4 29 3 29 0 0 -6 -5 -13 -12z"/>
</g>
</svg>
